<svg xmlns="http://www.w3.org/2000/svg" width="1440" height="102"><path data-name="Rectangle 5" fill="none" d="M0 0h1440v102H0z"/><path data-name="BUSINESS" d="M294.527 60.184a14.256 14.256 0 01-4.527-2.3l2.389-4.843a14.042 14.042 0 003.676 2.129 10.157 10.157 0 003.691.9q1.551 0 1.552-1.007a1.085 1.085 0 00-.762-.986 15.547 15.547 0 00-2.449-.769 25.412 25.412 0 01-3.427-1.061 6.1 6.1 0 01-2.382-1.741 4.716 4.716 0 01-1.005-3.156A5.652 5.652 0 01292.3 44a6.516 6.516 0 012.9-2.218 11.313 11.313 0 014.367-.782 16.84 16.84 0 014.52.626A14.366 14.366 0 01308 43.313l-2.321 4.9a24.924 24.924 0 00-3.555-1.592 9.7 9.7 0 00-3.11-.694q-1.187 0-1.187.816a1.067 1.067 0 00.749.959 15.237 15.237 0 002.368.769 26.157 26.157 0 013.475 1.143 6.371 6.371 0 012.4 1.823 4.994 4.994 0 011.032 3.306 5.534 5.534 0 01-1.086 3.5 6.409 6.409 0 01-2.941 2.082A11.9 11.9 0 01299.7 61a17.262 17.262 0 01-5.173-.816zm-23 0a14.246 14.246 0 01-4.527-2.3l2.388-4.843a14.048 14.048 0 003.677 2.129 10.157 10.157 0 003.69.9q1.552 0 1.552-1.007a1.083 1.083 0 00-.762-.986 15.547 15.547 0 00-2.449-.769 25.453 25.453 0 01-3.427-1.061 6.088 6.088 0 01-2.381-1.741 4.712 4.712 0 01-1.005-3.156A5.646 5.646 0 01269.3 44a6.513 6.513 0 012.9-2.218 11.313 11.313 0 014.366-.782 16.846 16.846 0 014.521.626A14.378 14.378 0 01285 43.313l-2.321 4.9a24.936 24.936 0 00-3.556-1.592 9.7 9.7 0 00-3.109-.694q-1.188 0-1.188.816a1.069 1.069 0 00.749.959 15.237 15.237 0 002.368.769 26.069 26.069 0 013.475 1.143 6.374 6.374 0 012.4 1.823 5 5 0 011.032 3.306 5.539 5.539 0 01-1.086 3.5 6.411 6.411 0 01-2.942 2.082A11.9 11.9 0 01276.7 61a17.256 17.256 0 01-5.173-.816zM246 61V41h16.752v5.028h-10.189v2.451h9.252v5.014h-9.252v2.493H263V61zm-12.408 0L225.9 50.791V61H220V41h5.42l7.723 10.279V41H239v20zM207 61V41h7v20zm-18.473-.816a14.265 14.265 0 01-4.527-2.3l2.389-4.843a14.042 14.042 0 003.676 2.129 10.161 10.161 0 003.691.9q1.551 0 1.552-1.007a1.083 1.083 0 00-.762-.986 15.547 15.547 0 00-2.449-.769 25.453 25.453 0 01-3.427-1.061 6.088 6.088 0 01-2.382-1.737 4.712 4.712 0 01-1.005-3.156A5.646 5.646 0 01186.3 44a6.513 6.513 0 012.9-2.218 11.313 11.313 0 014.367-.782 16.851 16.851 0 014.521.626A14.36 14.36 0 01202 43.313l-2.32 4.9a24.981 24.981 0 00-3.556-1.592 9.7 9.7 0 00-3.11-.694q-1.187 0-1.187.816a1.067 1.067 0 00.749.959 15.237 15.237 0 002.368.769 26.156 26.156 0 013.475 1.143 6.371 6.371 0 012.4 1.823 4.994 4.994 0 011.032 3.306 5.539 5.539 0 01-1.085 3.5 6.416 6.416 0 01-2.942 2.082A11.9 11.9 0 01193.7 61a17.262 17.262 0 01-5.173-.816zm-24.983-.248a7.867 7.867 0 01-3.358-3.021A8.593 8.593 0 01159 52.373V41h6.55v11.373a3.136 3.136 0 00.889 2.3 2.923 2.923 0 002.157.9 2.667 2.667 0 002.048-.873 3.291 3.291 0 00.807-2.328V41H178v11.373a8.748 8.748 0 01-1.158 4.54 7.742 7.742 0 01-3.289 3.021A11.014 11.014 0 01168.569 61a11.276 11.276 0 01-5.025-1.065zM136 61V41h9.766a11.943 11.943 0 014.05.626 5.974 5.974 0 012.673 1.774 4.08 4.08 0 01.933 2.66 4.3 4.3 0 01-.879 2.64 4.558 4.558 0 01-2.372 1.629 4.731 4.731 0 012.781 1.783A5.255 5.255 0 01154 55.387a4.786 4.786 0 01-.967 2.966 6.063 6.063 0 01-2.714 1.964 11.192 11.192 0 01-4.083.683z" fill="#007397"/><g data-name="Page 1" fill="#007397"><path data-name="Fill 1" d="M1290.847 65.701a13.789 13.789 0 01-13.847-13.7 13.85 13.85 0 0127.7 0 13.79 13.79 0 01-13.853 13.7zm0-26.194a12.577 12.577 0 00-12.629 12.494 12.632 12.632 0 0025.262 0 12.578 12.578 0 00-12.633-12.5z"/><path data-name="Fill 3" d="M1290.848 65.701c-4.558 0-8.267-6.147-8.267-13.7s3.709-13.7 8.267-13.7 8.265 6.145 8.265 13.7-3.707 13.7-8.265 13.7zm0-26.194c-3.887-.006-7.049 5.603-7.049 12.494s3.162 12.494 7.049 12.494 7.047-5.605 7.047-12.495-3.161-12.499-7.047-12.499z"/><path data-name="Fill 5" d="M1290.847 65.701a.606.606 0 01-.608-.6v-26.2a.606.606 0 01.608-.6 13.79 13.79 0 0113.85 13.7 13.79 13.79 0 01-13.85 13.7zm.61-26.181v24.961a12.63 12.63 0 008.517-3.85 12.378 12.378 0 000-17.26 12.633 12.633 0 00-8.517-3.851z"/><path data-name="Fill 8" d="M1303.224 57.218h-24.756a.611.611 0 01-.57-.39 13.407 13.407 0 01.002-9.658.612.612 0 01.572-.389h24.752a.614.614 0 01.57.389 13.524 13.524 0 01.9 4.83 13.507 13.507 0 01-.9 4.829.613.613 0 01-.57.389zm-24.324-9.237a12.191 12.191 0 000 8.029h23.9a12.123 12.123 0 000-8.029h-23.9z"/></g><text transform="translate(535 45)" fill="#646667" font-size="12" font-family="Montserrat-Bold, Montserrat" font-weight="700"><tspan x="4.578" y="12" letter-spacing=".083em">INVESTOR</tspan><tspan y="12">S</tspan></text><text data-name="About Us" transform="translate(652 45)" fill="#646667" font-size="12" font-family="Montserrat-Bold, Montserrat" font-weight="700"><tspan x="3.632" y="12" letter-spacing=".083em">ABOUT U</tspan><tspan y="12">S</tspan></text><text data-name="Our Services" transform="translate(759 45)" fill="#646667" font-size="12" font-family="Montserrat-Bold, Montserrat" font-weight="700"><tspan x="5.98" y="12" letter-spacing=".083em">OUR SERVICE</tspan><tspan y="12">S</tspan></text><text data-name="News &amp; Media" transform="translate(904 45)" fill="#646667" font-size="12" font-family="Montserrat-Bold, Montserrat" font-weight="700" letter-spacing=".083em"><tspan x="4.743" y="12">NEWS &amp; MEDIA</tspan></text><text transform="translate(1049 45)" fill="#646667" font-size="12" font-family="Montserrat-Bold, Montserrat" font-weight="700"><tspan x="3.468" y="12" letter-spacing=".083em">CAREE</tspan><tspan y="12">R</tspan></text><text data-name="Our Locations" transform="translate(1140 45)" fill="#646667" font-size="12" font-family="Montserrat-Bold, Montserrat" font-weight="700"><tspan x="5.118" y="12" letter-spacing=".083em">OUR LOCATION</tspan><tspan y="12">S</tspan></text></svg>